<svg width="24" height="23" viewBox="0 0 24 23" fill="none" xmlns="http://www.w3.org/2000/svg">
<path d="M12 0.951721C5.37236 0.951721 0 5.19795 0 10.4389C0 13.849 2.27492 16.8377 5.69184 18.5099C5.44033 19.4457 4.78323 21.9041 4.65181 22.4298C4.48867 23.0824 4.88973 23.0733 5.15483 22.8989C5.36103 22.7606 8.4426 20.6647 9.77266 19.7606C10.4955 19.8671 11.2387 19.9238 12 19.9238C18.6276 19.9238 24 15.6776 24 10.4389C24 5.20021 18.6276 0.951721 12 0.951721Z" fill="#371C1D"/>
<path d="M3.62764 8.68962H4.86253C4.86253 8.68962 4.86933 12.0816 4.86253 12.8724C4.86253 13.4502 6.14727 13.457 6.14501 12.8815L6.14954 8.73494C6.14954 8.73494 6.56419 8.73721 7.37764 8.73721C8.14576 8.73721 8.14576 7.5295 7.37764 7.5295C6.51208 7.5295 3.62084 7.50458 3.62084 7.50458C2.89576 7.50458 2.89803 8.68962 3.62084 8.68962" fill="#F9E000"/>
<mask id="mask0_29_238" style="mask-type:luminance" maskUnits="userSpaceOnUse" x="3" y="7" width="5" height="7">
<path d="M3.62764 8.68962H4.86253C4.86253 8.68962 4.86933 12.0816 4.86253 12.8724C4.86253 13.4502 6.14727 13.457 6.14501 12.8815L6.14954 8.73494C6.14954 8.73494 6.56419 8.73721 7.37764 8.73721C8.14576 8.73721 8.14576 7.5295 7.37764 7.5295C6.51208 7.5295 3.62084 7.50458 3.62084 7.50458C2.89576 7.50458 2.89803 8.68962 3.62084 8.68962" fill="white"/>
</mask>
<g mask="url(#mask0_29_238)">
<path d="M8.14803 7.50684H2.9003V13.4593H8.14803V7.50684Z" fill="#F9E000"/>
</g>
<path d="M9.5393 8.90939L10.2259 11.062H8.79383L9.5393 8.90939ZM8.76891 7.90108C8.46528 8.56951 7.36634 11.7304 7.0038 12.5688C6.74096 13.1737 7.87616 13.6677 8.139 13.0627L8.38598 12.1994H10.645C10.645 12.1994 10.568 12.2357 10.8671 13.0265C11.1095 13.6677 12.2833 13.2236 12.0408 12.5824C11.6941 11.6669 10.4932 8.36785 10.2734 7.90108C10.1737 7.68582 9.81121 7.52948 9.46 7.52948C9.16997 7.52948 8.88673 7.63598 8.76664 7.90108" fill="#F9E000"/>
<mask id="mask1_29_238" style="mask-type:luminance" maskUnits="userSpaceOnUse" x="6" y="7" width="7" height="7">
<path d="M9.5393 8.90939L10.2259 11.062H8.79383L9.5393 8.90939ZM8.76891 7.90108C8.46528 8.56951 7.36634 11.7304 7.0038 12.5688C6.74096 13.1737 7.87616 13.6677 8.139 13.0627L8.38598 12.1994H10.645C10.645 12.1994 10.568 12.2357 10.8671 13.0265C11.1095 13.6677 12.2833 13.2236 12.0408 12.5824C11.6941 11.6669 10.4932 8.36785 10.2734 7.90108C10.1737 7.68582 9.81121 7.52948 9.46 7.52948C9.16997 7.52948 8.88673 7.63598 8.76664 7.90108" fill="white"/>
</mask>
<g mask="url(#mask1_29_238)">
<path d="M12.2855 7.53174H6.73868V13.6722H12.2855V7.53174Z" fill="#F9E000"/>
</g>
<path d="M12.4758 8.09821C12.4758 9.17223 12.4826 12.6345 12.4826 12.6345C12.4826 12.6345 12.3829 13.3233 12.9743 13.3233C13.5657 13.3233 14.8731 13.3165 15.4532 13.3165C16.0332 13.3165 16.031 12.0816 15.4509 12.0816C14.8709 12.0816 13.8104 12.0748 13.8104 12.0748C13.8104 12.0748 13.815 8.87314 13.8127 8.09368C13.8127 7.71755 13.4774 7.52948 13.1443 7.52948C12.8112 7.52948 12.4736 7.71981 12.4758 8.09595" fill="#F9E000"/>
<mask id="mask2_29_238" style="mask-type:luminance" maskUnits="userSpaceOnUse" x="12" y="7" width="4" height="7">
<path d="M12.4758 8.09821C12.4758 9.17223 12.4826 12.6345 12.4826 12.6345C12.4826 12.6345 12.3829 13.3233 12.9743 13.3233C13.5657 13.3233 14.8731 13.3165 15.4532 13.3165C16.0332 13.3165 16.031 12.0816 15.4509 12.0816C14.8709 12.0816 13.8104 12.0748 13.8104 12.0748C13.8104 12.0748 13.815 8.87314 13.8127 8.09368C13.8127 7.71755 13.4774 7.52948 13.1443 7.52948C12.8112 7.52948 12.4736 7.71981 12.4758 8.09595" fill="white"/>
</mask>
<g mask="url(#mask2_29_238)">
<path d="M16.0333 7.53174H12.383V13.3233H16.0333V7.53174Z" fill="#F9E000"/>
</g>
<path d="M16.1873 7.92832C16.2009 8.39962 16.1714 12.6594 16.1714 12.9744C16.1714 13.4729 17.4403 13.4706 17.4403 12.9744C17.4403 12.3966 17.4403 11.2977 17.4403 11.2977L17.8119 10.9986L19.4411 13.2191C19.7696 13.6541 20.8051 12.8679 20.4766 12.4351L18.7477 10.1579C18.7477 10.1579 19.9214 8.88904 20.3837 8.42907C20.6533 8.1617 19.8172 7.3188 19.5476 7.58844C19.287 7.84675 17.4471 9.68889 17.4471 9.68889C17.4471 9.68889 17.463 8.5333 17.4471 7.89433C17.4403 7.65188 17.1435 7.53406 16.8376 7.53406C16.5113 7.53406 16.1782 7.66774 16.185 7.92832" fill="#F9E000"/>
<mask id="mask3_29_238" style="mask-type:luminance" maskUnits="userSpaceOnUse" x="16" y="7" width="5" height="7">
<path d="M16.1873 7.92832C16.2009 8.39962 16.1714 12.6594 16.1714 12.9744C16.1714 13.4729 17.4403 13.4706 17.4403 12.9744C17.4403 12.3966 17.4403 11.2977 17.4403 11.2977L17.8119 10.9986L19.4411 13.2191C19.7696 13.6541 20.8051 12.8679 20.4766 12.4351L18.7477 10.1579C18.7477 10.1579 19.9214 8.88904 20.3837 8.42907C20.6533 8.1617 19.8172 7.3188 19.5476 7.58844C19.287 7.84675 17.4471 9.68889 17.4471 9.68889C17.4471 9.68889 17.463 8.5333 17.4471 7.89433C17.4403 7.65188 17.1435 7.53406 16.8376 7.53406C16.5113 7.53406 16.1782 7.66774 16.185 7.92832" fill="white"/>
</mask>
<g mask="url(#mask3_29_238)">
<path d="M20.8051 7.32104H16.1714V13.6564H20.8051V7.32104Z" fill="#F9E000"/>
</g>
</svg>
